<svg width="58" height="41" viewBox="0 0 58 41" fill="none" xmlns="http://www.w3.org/2000/svg">
<path fill-rule="evenodd" clip-rule="evenodd" d="M16.4713 16.1688C17.0994 16.2221 17.7274 15.8491 18.1199 15.3762C18.5059 14.89 18.761 14.2373 18.6956 13.5713C18.1396 13.5979 17.4526 13.9443 17.0601 14.4305C16.7003 14.8501 16.3928 15.5294 16.4713 16.1688ZM23.9414 24.7473V14.3639H27.7685C29.7442 14.3639 31.1245 15.7492 31.1245 17.7739C31.1245 19.7987 29.718 21.1973 27.7161 21.1973H25.5245V24.7473H23.9414ZM18.6887 16.2954C18.1354 16.263 17.6305 16.4648 17.2227 16.6278C16.9603 16.7327 16.7381 16.8215 16.569 16.8215C16.3793 16.8215 16.1479 16.728 15.8881 16.6229C15.5477 16.4852 15.1585 16.3278 14.7504 16.3353C13.8148 16.3487 12.9448 16.8881 12.4672 17.7473C11.4859 19.4657 12.212 22.0099 13.1606 23.4086C13.6251 24.1012 14.1812 24.8605 14.9139 24.8339C15.2363 24.8215 15.4681 24.7213 15.7081 24.6177C15.9844 24.4983 16.2714 24.3743 16.7195 24.3743C17.1521 24.3743 17.4265 24.4951 17.69 24.611C17.9405 24.7212 18.1811 24.8271 18.5382 24.8206C19.2971 24.8072 19.7746 24.1279 20.2391 23.4352C20.7404 22.6918 20.9606 21.9662 20.9941 21.8561L20.998 21.8434C20.9972 21.8426 20.991 21.8397 20.9801 21.8346C20.8125 21.7565 19.5318 21.1596 19.5195 19.5589C19.5072 18.2154 20.5353 17.5347 20.6972 17.4275C20.707 17.421 20.7137 17.4166 20.7167 17.4143C20.0625 16.4286 19.0419 16.322 18.6887 16.2954ZM34.0166 24.8271C35.011 24.8271 35.9334 24.3143 36.3521 23.5017H36.3848V24.7472H37.8503V19.5788C37.8503 18.0802 36.6727 17.1145 34.8606 17.1145C33.1793 17.1145 31.9363 18.0936 31.8905 19.4389H33.3166C33.4344 18.7996 34.0166 18.38 34.8148 18.38C35.783 18.38 36.326 18.8395 36.326 19.6854V20.2582L34.3503 20.378C32.512 20.4913 31.5176 21.2572 31.5176 22.5893C31.5176 23.9346 32.5447 24.8271 34.0166 24.8271ZM34.4409 23.5951C33.597 23.5951 33.0605 23.1821 33.0605 22.5494C33.0605 21.8967 33.5774 21.517 34.5652 21.4571L36.325 21.3439V21.93C36.325 22.9024 35.5138 23.5951 34.4409 23.5951ZM42.7126 25.1537C42.078 26.9719 41.3518 27.5714 39.8079 27.5714C39.6902 27.5714 39.2976 27.558 39.206 27.5314V26.2859C39.3042 26.2992 39.5462 26.3126 39.6705 26.3126C40.3705 26.3126 40.763 26.0129 41.0051 25.2336L41.149 24.774L38.4668 17.2146H40.1219L41.9864 23.3487H42.0191L43.8836 17.2146H45.4929L42.7126 25.1537ZM25.5254 15.7225H27.3506C28.7244 15.7225 29.5095 16.4685 29.5095 17.7806C29.5095 19.0926 28.7244 19.8453 27.3441 19.8453H25.5254V15.7225Z" fill="#181D25"/>
</svg>
