<svg width="58" height="41" viewBox="0 0 58 41" fill="none" xmlns="http://www.w3.org/2000/svg">
<path fill-rule="evenodd" clip-rule="evenodd" d="M27.8796 24.4268V19.9788H30.1622C31.0975 19.9788 31.887 19.6636 32.5306 19.0419L32.685 18.8843C33.8606 17.5972 33.7834 15.5921 32.5306 14.4013C31.9041 13.7709 31.046 13.4294 30.1622 13.4469H26.498V24.4268H27.8796ZM27.8809 18.6305V14.7954H30.1981C30.6959 14.7954 31.1679 14.988 31.5198 15.3383C32.2665 16.0738 32.2837 17.2996 31.5627 18.0614C31.2109 18.4379 30.7131 18.648 30.1981 18.6305H27.8809ZM39.1297 17.5009C38.5376 16.9493 37.731 16.6691 36.7098 16.6691C35.3969 16.6691 34.4101 17.1594 33.7579 18.1313L34.9764 18.9106C35.4226 18.2452 36.0319 17.9125 36.8042 17.9125C37.2933 17.9125 37.7653 18.0963 38.1343 18.429C38.4947 18.7443 38.7006 19.1996 38.7006 19.6811V20.0051C38.1686 19.7074 37.4993 19.5498 36.6755 19.5498C35.7144 19.5498 34.9421 19.7775 34.3672 20.2415C33.7922 20.7056 33.5005 21.3185 33.5005 22.0978C33.4833 22.807 33.7837 23.4812 34.3157 23.9365C34.8563 24.4268 35.5428 24.672 36.3494 24.672C37.3019 24.672 38.057 24.2429 38.632 23.3849H38.692V24.4268H40.0135V19.795C40.0135 18.8231 39.7218 18.0525 39.1297 17.5009ZM35.3804 23.0434C35.0972 22.8333 34.9256 22.4918 34.9256 22.1241C34.9256 21.7125 35.1144 21.3711 35.4834 21.0996C35.8611 20.8282 36.3331 20.6881 36.891 20.6881C37.6634 20.6793 38.2641 20.8545 38.6933 21.2047C38.6933 21.8001 38.4615 22.3167 38.0067 22.7545C37.5947 23.1748 37.0369 23.4112 36.4532 23.4112C36.067 23.4199 35.6894 23.2886 35.3804 23.0434ZM42.9815 27.7279L47.5981 16.9143H46.0964L43.9597 22.308H43.934L41.7458 16.9143H40.2441L43.2732 23.9453L41.557 27.7279H42.9815Z" fill="#181D25"/>
<path d="M23.1092 19.0157C23.1092 18.5866 23.0749 18.1576 23.0063 17.7373H17.1797V20.1627H20.5177C20.3804 20.942 19.9342 21.6424 19.2821 22.0802V23.6563H21.2729C22.4399 22.5618 23.1092 20.942 23.1092 19.0157Z" fill="#4285F4"/>
<path d="M17.1798 25.1799C18.8445 25.1799 20.2518 24.6195 21.273 23.6564L19.2821 22.0803C18.7244 22.4656 18.0121 22.6845 17.1798 22.6845C15.5665 22.6845 14.2021 21.5725 13.713 20.084H11.6621V21.7126C12.709 23.8403 14.8457 25.1799 17.1798 25.1799Z" fill="#34A853"/>
<path d="M13.7142 20.0843C13.4567 19.305 13.4567 18.4557 13.7142 17.6677V16.0479H11.663C10.779 17.8253 10.779 19.9267 11.663 21.7041L13.7142 20.0843Z" fill="#FBBC04"/>
<path d="M17.1798 15.0671C18.0636 15.0496 18.9131 15.3911 19.5481 16.0127L21.3159 14.209C20.1917 13.1408 18.7158 12.5542 17.1798 12.5717C14.8457 12.5717 12.709 13.9201 11.6621 16.0478L13.713 17.6763C14.2021 16.1791 15.5665 15.0671 17.1798 15.0671Z" fill="#EA4335"/>
</svg>
