<svg width="58" height="41" viewBox="0 0 58 41" fill="none" xmlns="http://www.w3.org/2000/svg">
<path fill-rule="evenodd" clip-rule="evenodd" d="M28.9345 27.889C27.2468 29.3537 25.0577 30.2379 22.6655 30.2379C17.3277 30.2379 13.0006 25.8354 13.0006 20.4046C13.0006 14.9738 17.3277 10.5713 22.6655 10.5713C25.0577 10.5713 27.2468 11.4555 28.9345 12.9202C30.6222 11.4555 32.8113 10.5713 35.2034 10.5713C40.5412 10.5713 44.8684 14.9738 44.8684 20.4046C44.8684 25.8354 40.5412 30.2379 35.2034 30.2379C32.8113 30.2379 30.6222 29.3537 28.9345 27.889Z" fill="#ED0006"/>
<path fill-rule="evenodd" clip-rule="evenodd" d="M28.9363 27.889C31.0145 26.0854 32.3322 23.4016 32.3322 20.4046C32.3322 17.4076 31.0145 14.7238 28.9363 12.9202C30.624 11.4555 32.8131 10.5713 35.2052 10.5713C40.543 10.5713 44.8702 14.9738 44.8702 20.4046C44.8702 25.8354 40.543 30.2379 35.2052 30.2379C32.8131 30.2379 30.624 29.3537 28.9363 27.889Z" fill="#F9A000"/>
<path fill-rule="evenodd" clip-rule="evenodd" d="M28.9355 27.8893C31.0137 26.0856 32.3315 23.4018 32.3315 20.4048C32.3315 17.4079 31.0137 14.724 28.9355 12.9204C26.8573 14.724 25.5396 17.4079 25.5396 20.4048C25.5396 23.4018 26.8573 26.0856 28.9355 27.8893Z" fill="#FF5E00"/>
</svg>
