<svg width="58" height="41" viewBox="0 0 58 41" fill="none" xmlns="http://www.w3.org/2000/svg">
<path fill-rule="evenodd" clip-rule="evenodd" d="M12.9253 14.5718H9.73285C9.51439 14.5718 9.32859 14.7315 9.29453 14.9483L8.00335 23.1817C7.97769 23.3442 8.10278 23.4906 8.26664 23.4906H9.79073C10.0092 23.4906 10.195 23.3309 10.2291 23.1137L10.5773 20.893C10.6109 20.6755 10.7971 20.5161 11.0152 20.5161H12.0258C14.1287 20.5161 15.3423 19.4925 15.6594 17.4644C15.8022 16.5771 15.6655 15.8799 15.2522 15.3915C14.7986 14.8555 13.9937 14.5718 12.9253 14.5718ZM13.2936 17.5789C13.119 18.731 12.2438 18.731 11.3975 18.731H10.9157L11.2537 16.5793C11.2738 16.4494 11.3858 16.3535 11.5165 16.3535H11.7373C12.3138 16.3535 12.8577 16.3535 13.1387 16.684C13.3061 16.8813 13.3575 17.1741 13.2936 17.5789ZM22.4682 17.542H20.9394C20.8092 17.542 20.6966 17.6378 20.6765 17.7679L20.6089 18.1979L20.502 18.0421C20.171 17.5589 19.4331 17.3975 18.6965 17.3975C17.007 17.3975 15.5642 18.6843 15.2831 20.4896C15.1371 21.3899 15.3447 22.2509 15.8526 22.8514C16.3185 23.4035 16.9852 23.6336 17.7782 23.6336C19.1393 23.6336 19.8943 22.7532 19.8943 22.7532L19.8261 23.1806C19.8003 23.344 19.9254 23.4904 20.0883 23.4904H21.4654C21.6845 23.4904 21.8692 23.3307 21.9037 23.1134L22.73 17.8509C22.7562 17.6891 22.6315 17.542 22.4682 17.542ZM20.3372 20.5345C20.1896 21.4129 19.4964 22.0026 18.6124 22.0026C18.1685 22.0026 17.8136 21.8594 17.5859 21.588C17.36 21.3186 17.274 20.935 17.3459 20.5078C17.4837 19.6368 18.1886 19.028 19.0592 19.028C19.4932 19.028 19.8461 19.173 20.0786 19.4467C20.3115 19.7233 20.4039 20.1091 20.3372 20.5345ZM29.0739 17.5418H30.6102C30.8254 17.5418 30.9509 17.7844 30.8286 17.9619L25.7191 25.3797C25.6364 25.4998 25.5001 25.5713 25.3545 25.5713H23.8201C23.604 25.5713 23.4779 25.3267 23.603 25.1487L25.194 22.8901L23.5019 17.8957C23.4433 17.7221 23.5708 17.5418 23.7544 17.5418H25.2639C25.4601 17.5418 25.6331 17.6712 25.6897 17.86L26.5877 20.8765L28.7067 17.7375C28.7896 17.615 28.9274 17.5418 29.0739 17.5418Z" fill="#253B80"/>
<path fill-rule="evenodd" clip-rule="evenodd" d="M45.7289 23.1816L47.039 14.7977C47.0591 14.6675 47.1712 14.5717 47.3015 14.5713H48.7765C48.9394 14.5713 49.0644 14.7182 49.0387 14.8807L47.7467 23.1136C47.713 23.3309 47.5272 23.4906 47.3084 23.4906H45.9911C45.8282 23.4906 45.7032 23.3441 45.7289 23.1816ZM35.6949 14.5717H32.5019C32.284 14.5717 32.0982 14.7314 32.064 14.9482L30.7729 23.1816C30.7472 23.3441 30.8723 23.4906 31.0354 23.4906H32.6737C32.826 23.4906 32.9562 23.3789 32.98 23.2268L33.3463 20.893C33.38 20.6755 33.5663 20.516 33.7842 20.516H34.7943C36.8977 20.516 38.1111 19.4925 38.4284 17.4644C38.5717 16.5771 38.4341 15.8799 38.021 15.3915C37.5676 14.8555 36.7634 14.5717 35.6949 14.5717ZM36.0632 17.5788C35.8891 18.731 35.0138 18.731 34.167 18.731H33.6857L34.0242 16.5792C34.0443 16.4493 34.1553 16.3535 34.2865 16.3535H34.5072C35.0834 16.3535 35.6277 16.3535 35.9086 16.6839C36.0762 16.8812 36.1272 17.1741 36.0632 17.5788ZM45.237 17.5419H43.7093C43.5779 17.5419 43.4665 17.6377 43.4468 17.7679L43.3792 18.1978L43.2718 18.0421C42.9409 17.5589 42.2034 17.3974 41.4668 17.3974C39.7773 17.3974 38.3349 18.6843 38.0539 20.4895C37.9083 21.3898 38.115 22.2509 38.6229 22.8514C39.0897 23.4034 39.7555 23.6335 40.5485 23.6335C41.9096 23.6335 42.6644 22.7532 42.6644 22.7532L42.5964 23.1805C42.5706 23.3439 42.6957 23.4903 42.8597 23.4903H44.2362C44.4541 23.4903 44.6399 23.3306 44.674 23.1134L45.5007 17.8509C45.526 17.689 45.4009 17.5419 45.237 17.5419ZM43.1062 20.5345C42.9595 21.4129 42.2654 22.0025 41.3812 22.0025C40.9382 22.0025 40.5826 21.8594 40.3547 21.588C40.1287 21.3186 40.0438 20.9349 40.1149 20.5078C40.2534 19.6368 40.9574 19.028 41.828 19.028C42.2622 19.028 42.6149 19.1729 42.8476 19.4467C43.0813 19.7232 43.1738 20.1091 43.1062 20.5345Z" fill="#179BD7"/>
</svg>
