<svg width="58" height="41" viewBox="0 0 58 41" fill="none" xmlns="http://www.w3.org/2000/svg">
<path fill-rule="evenodd" clip-rule="evenodd" d="M20.4371 26.3203H17.5162L15.3259 17.916C15.2219 17.5294 15.0012 17.1877 14.6765 17.0266C13.8662 16.6218 12.9732 16.2996 11.9991 16.1371V15.8136H16.7045C17.3539 15.8136 17.8409 16.2996 17.9221 16.8641L19.0586 22.9263L21.978 15.8136H24.8178L20.4371 26.3203ZM26.4409 26.3203H23.6824L25.9539 15.8136H28.7124L26.4409 26.3203ZM32.2818 18.7243C32.363 18.1584 32.85 17.8348 33.4183 17.8348C34.3112 17.7536 35.2839 17.9161 36.0956 18.3195L36.5827 16.0573C35.7709 15.7338 34.878 15.5713 34.0677 15.5713C31.3903 15.5713 29.4421 17.0266 29.4421 19.0464C29.4421 20.583 30.8221 21.3898 31.7962 21.8759C32.85 22.3605 33.2559 22.6841 33.1747 23.1687C33.1747 23.8957 32.363 24.2192 31.5527 24.2192C30.5785 24.2192 29.6044 23.9769 28.7129 23.5721L28.2259 25.8356C29.2 26.2391 30.2538 26.4015 31.228 26.4015C34.23 26.4814 36.0956 25.0274 36.0956 22.8451C36.0956 20.097 32.2818 19.9359 32.2818 18.7243ZM45.7501 26.3203L43.5598 15.8136H41.2071C40.7201 15.8136 40.233 16.1371 40.0707 16.6218L36.0147 26.3203H38.8544L39.4213 24.7851H42.9104L43.2351 26.3203H45.7501ZM41.6117 18.6431L42.422 22.6029H40.1505L41.6117 18.6431Z" fill="#172B85"/>
</svg>
